<svg xmlns="http://www.w3.org/2000/svg" version="1.1" xmlns:xlink="http://www.w3.org/1999/xlink" xmlns:svgjs="http://svgjs.dev/svgjs" width="100%" height="100%" viewBox="0 0 1000 600"><rect width="1000" height="600" x="0" y="0" fill="Orange"/><g><rect width="333.3333333333333" height="333.3333333333333" y="213.50767347731693" fill="gray" transform="matrix(0.6534736741791323,0,0,0.6534736741791322,0,51.56607624853635)" x="191.285400390625"/><path d="M347.18714216104723 454.5484805677686L340.3103610122083 455.15781560627335Q336.3351752848204 455.3609272857749 334.12996276451764 453.0686669028286Q331.9537661984294 450.7764065198823 331.9537661984294 447.4395717852136L331.9537661984294 447.4395717852136Q331.9537661984294 444.91518376855123 333.5206277260129 442.8260350651065Q335.08748925359646 440.73688636166173 338.42432398826514 440.5337746821602L338.42432398826514 440.5337746821602L344.89488177810097 440.127551323157Q355.5437369748262 439.2860886509362 361.2018480466557 432.6994670442424Q366.8309431642707 426.1128454375486 366.8309431642707 414.6225275686025L366.8309431642707 414.6225275686025L366.8309431642707 313.937166444252Q366.8309431642707 309.55575735786095 369.03615568457343 307.3505448375582Q371.21235225066175 305.1743482714699 375.3906496575512 305.1743482714699L375.3906496575512 305.1743482714699Q379.56894706444064 305.1743482714699 381.7741595847434 307.3505448375582Q383.9503561508317 309.55575735786095 383.9503561508317 313.937166444252L383.9503561508317 313.937166444252L383.9503561508317 414.8546552023186Q383.9503561508317 426.7511964302678 379.77205874394224 435.4269667404064Q375.59376133705274 444.10273705054493 367.35323034013186 448.8903694959391Q359.1126993432109 453.70701789554784 347.18714216104723 454.5484805677686L347.18714216104723 454.5484805677686Z " fill="white" transform="matrix(0.6534736741791323,0,0,0.6534736741791322,0,51.56607624853635)"/><path d="M614.6269682233361 455.1743464223647L614.6269682233361 455.1743464223647Q611.2895146398077 455.1743464223647 609.6207878480434 453.4360893476102Q607.9520610562793 451.67465551185916 607.9520610562793 448.3372019283307L607.9520610562793 448.3372019283307L607.9520610562793 348.5612458374287Q607.9520610562793 345.2237922539003 609.6207878480434 343.46235841814917Q611.2895146398077 341.70092458239805 614.464730896359 341.70092458239805L614.464730896359 341.70092458239805Q617.8021844798875 341.70092458239805 619.5636183156386 343.46235841814917Q621.301875390393 345.2237922539003 621.301875390393 348.5612458374287L621.301875390393 348.5612458374287L621.301875390393 364.41415035918874L619.4709112716516 362.0732974985195Q622.136238786275 352.54764872886545 630.0626910471551 346.96204932865464Q637.9891433080352 341.3764499284439 648.9981047814796 341.3764499284439L648.9981047814796 341.3764499284439Q659.844828927947 341.3764499284439 667.9566952768008 346.47533734772344Q676.0453848646579 351.5510480060062 680.4721462150324 360.98398973167343Q684.8757308044102 370.4169314573406 684.8757308044102 383.41909437650344L684.8757308044102 383.41909437650344Q684.8757308044102 396.2821967296859 680.4721462150324 405.71513845535304Q676.0453848646579 415.1249034200235 668.026225559791 420.31649788328997Q660.0302430159209 425.4849155855597 648.9981047814796 425.4849155855597L648.9981047814796 425.4849155855597Q637.9891433080352 425.4849155855597 630.1553980911419 419.8993161853489Q622.2984761132521 414.29054002414136 619.4709112716516 404.95030534246115L619.4709112716516 404.95030534246115L621.46411271737 404.95030534246115L621.46411271737 448.3372019283307Q621.46411271737 451.67465551185916 619.6331485986287 453.4360893476102Q617.8021844798875 455.1743464223647 614.6269682233361 455.1743464223647ZM646.1705399398791 414.6381914390923L646.1705399398791 414.6381914390923Q653.8420478297951 414.6381914390923 659.427647230006 410.95308644061294Q665.0364233912135 407.29115820313035 668.1189326037779 400.2917763821194Q671.2014418163424 393.2692178001116 671.2014418163424 383.41909437650344L671.2014418163424 383.41909437650344Q671.2014418163424 368.2383159236484 664.4338276052986 360.2423333797782Q657.6893901552515 352.2231740749113 646.1705399398791 352.2231740749113L646.1705399398791 352.2231740749113Q638.6612693769401 352.2231740749113 632.9829629327425 355.8155720294037Q627.3046564885448 359.40796998389607 624.2221472759803 366.3146447609202Q621.1396380634159 373.24449629894104 621.1396380634159 383.41909437650344L621.1396380634159 383.41909437650344Q621.1396380634159 398.43763550238134 627.9767825574498 406.54950185123516Q634.8139270514837 414.6381914390923 646.1705399398791 414.6381914390923ZM730.7657175779261 425.4849155855597L730.7657175779261 425.4849155855597Q722.422083619105 425.4849155855597 715.8398834960351 422.2169922850214Q709.2576833729652 418.9722457454799 705.4103410475087 413.2939393012822Q701.5629987220524 407.6156328570845 701.5629987220524 400.6162510360735L701.5629987220524 400.6162510360735Q701.5629987220524 391.60049100834743 706.151997399404 386.4320733060777Q710.7409960767556 381.263655603808 721.3559526132557 379.0850400701158Q731.947732388759 376.92960129742033 750.3037270981655 376.92960129742033L750.3037270981655 376.92960129742033L757.8129976611044 376.92960129742033L757.8129976611044 385.75994723717264L750.4659644251425 385.75994723717264Q736.9539127640518 385.75994723717264 729.1896978301488 387.01149233099585Q721.4254828962459 388.263037424819 718.3429736836814 391.2760163543932Q715.260464471117 394.2658185229708 715.260464471117 399.7818876401914L715.260464471117 399.7818876401914Q715.260464471117 406.61903213422534 720.0117004754457 410.95308644061294Q724.7629364797742 415.3103175079973 732.9443331116183 415.3103175079973L732.9443331116183 415.3103175079973Q739.6192402786752 415.3103175079973 744.7181276979547 412.135101251446Q749.7938383562375 408.9598849948946 752.7141102418249 403.443815877674Q755.6343821274122 397.9509235214501 755.6343821274122 390.7661276124653L755.6343821274122 390.7661276124653L755.6343821274122 371.7380068341539Q755.6343821274122 361.40117142961446 751.4625651480018 356.8121727522629Q747.2907481685912 352.2231740749113 737.7882761599338 352.2231740749113L737.7882761599338 352.2231740749113Q731.947732388759 352.2231740749113 726.1071886175844 353.72966353969844Q720.2666448464096 355.2361530044856 713.7539750063298 358.573606588014L713.7539750063298 358.573606588014Q711.4131221456605 359.7324446378503 709.7443953538964 359.3152629399092Q708.0756685621321 358.89808124196816 707.079067839273 357.55382910415807Q706.0824671164138 356.23275372734474 705.9202297894367 354.4713198915936Q705.7348157014629 352.73306281683926 706.6618861413319 351.064336025075Q707.5889565812009 349.39560923331084 709.5821580269193 348.3758317494549L709.5821580269193 348.3758317494549Q716.9291912628812 344.7139035119723 724.0908104108693 343.0451767202081Q731.2756063198541 341.3764499284439 737.7882761599338 341.3764499284439L737.7882761599338 341.3764499284439Q748.2873488914504 341.3764499284439 755.147670146481 344.8066105559592Q761.984814640515 348.2135944224778 765.3222682240435 355.14344596049864Q768.6597218075718 362.0732974985195 768.6597218075718 372.9200216449869L768.6597218075718 372.9200216449869L768.6597218075718 418.13788234959776Q768.6597218075718 421.4753359331262 767.0605252987978 423.3063000518675Q765.4845055510204 425.1372641706088 762.4715266214462 425.1372641706088L762.4715266214462 425.1372641706088Q759.3194871258916 425.1372641706088 757.6507603341274 423.3063000518675Q755.9820335423631 421.4753359331262 755.9820335423631 418.13788234959776L755.9820335423631 418.13788234959776L755.9820335423631 405.1125426694382L757.4653462461536 405.1125426694382Q756.1442708693402 411.4629751825409 752.3896355878708 415.9592668159056Q748.6350003064013 420.478735210267 743.1189311891807 422.9818253979133Q737.6260388329567 425.4849155855597 730.7657175779261 425.4849155855597ZM800.527768178069 425.1372641706088L800.527768178069 425.1372641706088Q797.1903145945406 425.1372641706088 795.4288807587894 423.3063000518675Q793.690623684035 421.4753359331262 793.690623684035 418.13788234959776L793.690623684035 418.13788234959776L793.690623684035 348.5612458374287Q793.690623684035 345.2237922539003 795.3593504757993 343.46235841814917Q797.0280772675635 341.70092458239805 800.2032935241148 341.70092458239805L800.2032935241148 341.70092458239805Q803.3553330196695 341.70092458239805 805.1167668554206 343.46235841814917Q806.8782006911717 345.2237922539003 806.8782006911717 348.5612458374287L806.8782006911717 348.5612458374287L806.8782006911717 362.0732974985195L805.2094738994075 362.0732974985195Q807.8748014140309 352.2231740749113 815.3840719769698 346.89251904566447Q822.8933425399088 341.53868725542094 833.9023040133533 341.2142126014668L833.9023040133533 341.2142126014668Q836.4053942009996 341.05197527448973 837.9118836657867 342.3035203683129Q839.4183731305739 343.55506546213604 839.580610457551 346.5448676307136L839.580610457551 346.5448676307136Q839.7428477845281 349.39560923331084 838.2363583197409 351.064336025075Q836.7298688549538 352.73306281683926 833.5778293593992 353.05753747079336L833.5778293593992 353.05753747079336L830.889325083779 353.3820121247475Q819.5558889563804 354.40178960860345 813.4604008142417 360.6595150777193Q807.364912672103 366.91724054683505 807.364912672103 377.76396469330246L807.364912672103 377.76396469330246L807.364912672103 418.13788234959776Q807.364912672103 421.4753359331262 805.6266555973485 423.3063000518675Q803.8652217615975 425.1372641706088 800.527768178069 425.1372641706088ZM890.3145402793824 425.4849155855597L890.3145402793824 425.4849155855597Q880.7888915097284 425.4849155855597 874.3689287136356 422.0547549580443Q867.9489659175426 418.6477710915257 864.7737496609913 412.04239420745904Q861.5985334044399 405.4601940843891 861.5985334044399 395.93454531473503L861.5985334044399 395.93454531473503L861.5985334044399 353.3820121247475L850.4273346040184 353.3820121247475Q847.5765930014212 353.3820121247475 846.0932802976308 351.9682297039473Q844.5867908328436 350.55444728314706 844.5867908328436 348.05135709550075L844.5867908328436 348.05135709550075Q844.5867908328436 345.5482669078544 846.0932802976308 344.20401477004435Q847.5765930014212 342.882939393231 850.4273346040184 342.882939393231L850.4273346040184 342.882939393231L861.5985334044399 342.882939393231L861.5985334044399 323.6925812879426Q861.5985334044399 320.3551277044141 863.4294975231812 318.593693868663Q865.2836384029192 316.8554367939086 868.4356778984738 316.8554367939086L868.4356778984738 316.8554367939086Q871.6108941550252 316.8554367939086 873.3723279907763 318.593693868663Q875.1105850655307 320.3551277044141 875.1105850655307 323.6925812879426L875.1105850655307 323.6925812879426L875.1105850655307 342.882939393231L896.1550840505572 342.882939393231Q898.9826488921576 342.882939393231 900.4891383569447 344.20401477004435Q901.9956278217319 345.5482669078544 901.9956278217319 348.05135709550075L901.9956278217319 348.05135709550075Q901.9956278217319 350.55444728314706 900.4891383569447 351.9682297039473Q898.9826488921576 353.3820121247475 896.1550840505572 353.3820121247475L896.1550840505572 353.3820121247475L875.1105850655307 353.3820121247475L875.1105850655307 394.6134699379217Q875.1105850655307 404.115941946579 879.1201647179641 409.05259203888147Q883.1297443703977 413.9660653701872 892.1455043981236 413.9660653701872L892.1455043981236 413.9660653701872Q895.3207206546751 413.9660653701872 897.5688664713575 413.2939393012822Q899.8170122880398 412.6218132323772 901.3235017528269 412.6218132323772L901.3235017528269 412.6218132323772Q902.829991217614 412.4595759054001 903.8265919404732 413.6415907162331Q904.8231926633325 414.80042876606933 904.8231926633325 417.6279936076698L904.8231926633325 417.6279936076698Q904.8231926633325 419.6443718143849 904.0815363114373 421.31309860614914Q903.3167031985453 422.9818253979133 901.485739079804 423.65395146681834L901.485739079804 423.65395146681834Q899.4925376340856 424.30290077472665 896.2246143335474 424.90549656064155Q892.9798677940058 425.4849155855597 890.3145402793824 425.4849155855597ZM923.8513134416439 424.8127895166546L923.8513134416439 424.8127895166546Q920.5138598581154 424.8127895166546 918.8451330663512 422.88911835392645Q917.176406274587 420.9654471911983 917.176406274587 417.46575628069274L917.176406274587 417.46575628069274L917.176406274587 349.210195145337Q917.176406274587 345.7105042348315 918.8451330663512 343.8795401160902Q920.5138598581154 342.0485759973489 923.8513134416439 342.0485759973489L923.8513134416439 342.0485759973489Q927.0265296981952 342.0485759973489 928.8574938169365 343.8795401160902Q930.6884579356778 345.7105042348315 930.6884579356778 349.210195145337L930.6884579356778 349.210195145337L930.6884579356778 417.46575628069274Q930.6884579356778 420.9654471911983 928.9270240999267 422.88911835392645Q927.1887670251722 424.8127895166546 923.8513134416439 424.8127895166546ZM923.8513134416439 323.34492987299166L923.8513134416439 323.34492987299166Q919.6794964622333 323.34492987299166 917.3386436015641 321.09678405630933Q914.9977907408947 318.84863823962695 914.9977907408947 315.0012959141706L914.9977907408947 315.0012959141706Q914.9977907408947 311.0148930227339 917.3386436015641 308.9289845330286Q919.6794964622333 306.8430760433233 923.8513134416439 306.8430760433233L923.8513134416439 306.8430760433233Q928.1853677480315 306.8430760433233 930.4335135647138 308.9289845330286Q932.6816593813962 311.0148930227339 932.6816593813962 315.0012959141706L932.6816593813962 315.0012959141706Q932.6816593813962 318.84863823962695 930.4335135647138 321.09678405630933Q928.1853677480315 323.34492987299166 923.8513134416439 323.34492987299166ZM962.5565043061749 425.1372641706088L962.5565043061749 425.1372641706088Q959.2190507226464 425.1372641706088 957.5503239308823 423.3063000518675Q955.8815971391181 421.4753359331262 955.8815971391181 418.13788234959776L955.8815971391181 418.13788234959776L955.8815971391181 348.5612458374287Q955.8815971391181 345.2237922539003 957.5503239308823 343.46235841814917Q959.2190507226464 341.70092458239805 962.3942669791978 341.70092458239805L962.3942669791978 341.70092458239805Q965.5694832357492 341.70092458239805 967.3077403105036 343.46235841814917Q969.0691741462547 345.2237922539003 969.0691741462547 348.5612458374287L969.0691741462547 348.5612458374287L969.0691741462547 362.9076608944016L967.2382100275134 360.8912826876865Q970.7379009380189 351.22657335205207 978.6643531988989 346.2899232597496Q986.590805459779 341.3764499284439 996.9276408643184 341.3764499284439L996.9276408643184 341.3764499284439Q1006.6155269609495 341.3764499284439 1013.0354897570423 344.87614083894937Q1019.4554525531353 348.3758317494549 1022.6306688096865 355.4679206144528Q1025.805885066238 362.56000947945074 1025.805885066238 373.4067336259181L1025.805885066238 373.4067336259181L1025.805885066238 418.13788234959776Q1025.805885066238 421.4753359331262 1024.0444512304869 423.3063000518675Q1022.3061941557326 425.1372641706088 1019.1309778991812 425.1372641706088L1019.1309778991812 425.1372641706088Q1015.7935243156527 425.1372641706088 1014.0320904799016 423.3063000518675Q1012.2938334051472 421.4753359331262 1012.2938334051472 418.13788234959776L1012.2938334051472 418.13788234959776L1012.2938334051472 374.2410970218002Q1012.2938334051472 362.9076608944016 1007.8670720547727 357.646536148145Q1003.4403107043983 352.38541140188835 993.7756013687638 352.38541140188835L993.7756013687638 352.38541140188835Q982.5812258073455 352.38541140188835 975.9990256842756 359.3152629399092Q969.3936488002089 366.24511447793003 969.3936488002089 377.76396469330246L969.3936488002089 377.76396469330246L969.3936488002089 418.13788234959776Q969.3936488002089 425.1372641706088 962.5565043061749 425.1372641706088ZM1057.1872194558039 424.65055218967757L1057.1872194558039 424.65055218967757Q1053.0154024763933 424.65055218967757 1050.5123122887471 422.0547549580443Q1048.0092221011007 419.48213448740785 1048.0092221011007 415.47255483497435L1048.0092221011007 415.47255483497435Q1048.0092221011007 411.4629751825409 1050.5123122887471 408.8671779509077Q1053.0154024763933 406.2945574802712 1057.1872194558039 406.2945574802712L1057.1872194558039 406.2945574802712Q1061.3590364352144 406.2945574802712 1063.7694195788738 408.8671779509077Q1066.1798027225334 411.4629751825409 1066.1798027225334 415.47255483497435L1066.1798027225334 415.47255483497435Q1066.1798027225334 419.48213448740785 1063.7694195788738 422.0547549580443Q1061.3590364352144 424.65055218967757 1057.1872194558039 424.65055218967757ZM1115.9171318215058 425.4849155855597L1115.9171318215058 425.4849155855597Q1105.0704076750383 425.4849155855597 1096.9817180871812 420.31649788328997Q1088.893028499324 415.1249034200235 1084.4662671489496 405.71513845535304Q1080.039505798575 396.2821967296859 1080.039505798575 383.41909437650344L1080.039505798575 383.41909437650344Q1080.039505798575 370.4169314573406 1084.4662671489496 360.98398973167343Q1088.893028499324 351.5510480060062 1096.9817180871812 346.47533734772344Q1105.0704076750383 341.3764499284439 1115.9171318215058 341.3764499284439L1115.9171318215058 341.3764499284439Q1126.92609329495 341.3764499284439 1134.78301527284 346.89251904566447Q1142.6167604897332 352.38541140188835 1145.2820880043564 361.7256460835686L1145.2820880043564 361.7256460835686L1143.4511238856153 361.7256460835686L1143.4511238856153 312.01149374559304Q1143.4511238856153 308.6740401620646 1145.2125577213662 306.9126063263135Q1146.9508147961205 305.1743492515591 1150.2882683796493 305.1743492515591L1150.2882683796493 305.1743492515591Q1153.4634846362005 305.1743492515591 1155.2249184719517 306.9126063263135Q1156.963175546706 308.6740401620646 1156.963175546706 312.01149374559304L1156.963175546706 312.01149374559304L1156.963175546706 418.13788234959776Q1156.963175546706 421.4753359331262 1155.2944487549416 423.3063000518675Q1153.6257219631775 425.1372641706088 1150.2882683796493 425.1372641706088L1150.2882683796493 425.1372641706088Q1147.1130521230978 425.1372641706088 1145.3747950483435 423.3063000518675Q1143.6133612125923 421.4753359331262 1143.6133612125923 418.13788234959776L1143.6133612125923 418.13788234959776L1143.6133612125923 402.28497782783774L1145.4443253313334 404.625830688507Q1142.7789978167102 414.1283026971643 1134.8525455558301 419.806609141362Q1126.92609329495 425.4849155855597 1115.9171318215058 425.4849155855597ZM1118.744696663106 414.6381914390923L1118.744696663106 414.6381914390923Q1126.253967226045 414.6381914390923 1131.932273670243 410.95308644061294Q1137.6105801144404 407.29115820313035 1140.6930893270048 400.2917763821194Q1143.7755985395693 393.2692178001116 1143.7755985395693 383.41909437650344L1143.7755985395693 383.41909437650344Q1143.7755985395693 368.2383159236484 1137.0311610895224 360.2423333797782Q1130.2635468784786 352.2231740749113 1118.744696663106 352.2231740749113L1118.744696663106 352.2231740749113Q1111.07318877319 352.2231740749113 1105.4875893729793 355.8155720294037Q1099.9019899727684 359.40796998389607 1096.819480760204 366.3146447609202Q1093.713794786643 373.24449629894104 1093.713794786643 383.41909437650344L1093.713794786643 383.41909437650344Q1093.713794786643 398.43763550238134 1100.5741160416737 406.54950185123516Q1107.4112605357075 414.6381914390923 1118.744696663106 414.6381914390923ZM1218.8683041689592 425.4849155855597L1218.8683041689592 425.4849155855597Q1206.0283785767733 425.4849155855597 1196.757674178083 420.38602816628014Q1187.51014654039 415.3103175079973 1182.41125912111 405.9469060653203Q1177.3355484628273 396.60667138364005 1177.3355484628273 383.6045084644772L1177.3355484628273 383.6045084644772Q1177.3355484628273 370.9036434382718 1182.3417288381202 361.49387847360134Q1187.3479092134128 352.0609367479342 1196.1087248701747 346.70710495769066Q1204.8695405269368 341.3764499284439 1216.3652139813125 341.3764499284439L1216.3652139813125 341.3764499284439Q1224.5466106131566 341.3764499284439 1231.0592804532366 344.1344844870542Q1237.5719502933161 346.89251904566447 1242.160948970668 352.0609367479342Q1246.7499476480193 357.2293544502039 1249.160330791679 364.5763876861658Q1251.5938906963352 371.9234209221277 1251.5938906963352 381.1014182768309L1251.5938906963352 381.1014182768309Q1251.5938906963352 383.7667457914543 1250.0874012315478 385.01829088527745Q1248.5809117667607 386.2698359791006 1245.7533469251603 386.2698359791006L1245.7533469251603 386.2698359791006L1187.6723838673668 386.2698359791006L1187.6723838673668 377.4163132783516L1242.578130668609 377.4163132783516L1239.9128031539854 379.59492881204375Q1239.9128031539854 370.57916878431763 1237.2242988783655 364.32144331520186Q1234.5589713637419 358.06371784608604 1229.483260705459 354.7262642625576Q1224.3843732861797 351.3888106790292 1216.7128653962636 351.3888106790292L1216.7128653962636 351.3888106790292Q1208.2069941104653 351.3888106790292 1202.2737432953036 355.30568328747574Q1196.340492480142 359.2225558959223 1193.3506903115644 366.15240743394315Q1190.3377113819902 373.082258971964 1190.3377113819902 382.26025632666716L1190.3377113819902 382.26025632666716L1190.3377113819902 383.25685704952633Q1190.3377113819902 398.62304959035515 1197.777451661939 406.61903213422534Q1205.1940151808913 414.6381914390923 1218.8683041689592 414.6381914390923L1218.8683041689592 414.6381914390923Q1224.5466106131566 414.6381914390923 1230.1322100133675 413.13170197430514Q1235.740986174575 411.625212509518 1241.0716412038219 408.1255215990125L1241.0716412038219 408.1255215990125Q1243.412494064491 406.61903213422534 1245.3361652272192 406.7117391782122Q1247.2366596289507 406.7812694612024 1248.4186744397837 407.8705772280485Q1249.57751248962 408.9598849948946 1249.994694187561 410.5359047426719Q1250.411875885502 412.135101251446 1249.6702195336068 413.9660653701872Q1248.9053864207149 415.79702948892856 1246.7499476480193 417.1412816267386L1246.7499476480193 417.1412816267386Q1241.2338785307988 421.15086127917203 1233.7246079678598 423.3063000518675Q1226.2153374049208 425.4849155855597 1218.8683041689592 425.4849155855597ZM1300.3114423114514 425.1372641706088L1300.3114423114514 425.1372641706088Q1297.483877469851 425.1372641706088 1295.3052619361588 423.56124442283146Q1293.1266464024666 421.98522467505416 1291.643333698676 418.6477710915257L1291.643333698676 418.6477710915257L1262.7650894967564 351.22657335205207Q1261.6062514469204 348.72348316440576 1261.9307261008744 346.5448676307136Q1262.2552007548284 344.38942885801816 1263.923927546593 343.0451767202081Q1265.592654338357 341.70092458239805 1268.6056332679314 341.70092458239805L1268.6056332679314 341.70092458239805Q1271.2709607825545 341.70092458239805 1272.7774502473417 342.882939393231Q1274.283939712129 344.04177744306725 1275.4427777619653 347.0547563726416L1275.4427777619653 347.0547563726416L1302.8145324990976 413.9660653701872L1298.318240865733 413.9660653701872L1326.1767075837968 347.0547563726416Q1327.335545633633 344.04177744306725 1328.8420350984202 342.882939393231Q1330.3485245632073 341.70092458239805 1333.1760894048077 341.70092458239805L1333.1760894048077 341.70092458239805Q1335.8645936804278 341.70092458239805 1337.278376101228 343.0451767202081Q1338.6921585220284 344.38942885801816 1338.9471028929925 346.47533734772344Q1339.2020472639565 348.5612458374287 1338.1822697801003 351.064336025075L1338.1822697801003 351.064336025075L1308.9795509242267 418.6477710915257Q1307.8207128743902 421.98522467505416 1305.572567057708 423.56124442283146Q1303.3244212410257 425.1372641706088 1300.3114423114514 425.1372641706088Z " fill="white" transform="matrix(0.6534736741791323,0,0,0.6534736741791322,0,51.56607624853635)"/></g></svg>